<svg xmlns="http://www.w3.org/2000/svg" viewBox="0 0 200 200">
  <rect width="200" height="200" rx="16" fill="#e5f2e0"/>
  <ellipse cx="100" cy="188" rx="55" ry="14" fill="#c9b896"/>
  <rect x="82" y="158" width="36" height="26" rx="8" fill="#f5efe0"/>
  <ellipse cx="46" cy="122" rx="10" ry="14" fill="#e8b88a"/>
  <ellipse cx="154" cy="122" rx="10" ry="14" fill="#e8b88a"/>
  <circle cx="100" cy="118" r="54" fill="#f0c8a0"/>
  <path d="M46,116 A54,54 0 0 1 154,116 Z" fill="#ffffff" stroke="#e2ddd2" stroke-width="2"/>
  <rect x="44" y="104" width="112" height="15" rx="7.5" fill="#ffffff" stroke="#e2ddd2" stroke-width="2"/>
  <polygon points="116,70 136,26 146,72" fill="#ffffff" stroke="#e2ddd2" stroke-width="2"/>
  <circle cx="82" cy="134" r="5.5" fill="#33261a"/>
  <circle cx="118" cy="134" r="5.5" fill="#33261a"/>
  <circle cx="70" cy="146" r="6" fill="#f2a19b" opacity="0.7"/>
  <circle cx="130" cy="146" r="6" fill="#f2a19b" opacity="0.7"/>
  <path d="M86,152 Q100,163 114,152" fill="none" stroke="#33261a" stroke-width="4" stroke-linecap="round"/>
  <g transform="translate(154,104)">
    <circle cx="0" cy="-7" r="4.5" fill="#fff8dc"/>
    <circle cx="6.6" cy="-2.2" r="4.5" fill="#fff8dc"/>
    <circle cx="4.1" cy="5.7" r="4.5" fill="#fff8dc"/>
    <circle cx="-4.1" cy="5.7" r="4.5" fill="#fff8dc"/>
    <circle cx="-6.6" cy="-2.2" r="4.5" fill="#fff8dc"/>
    <circle cx="0" cy="0" r="3.6" fill="#facc15"/>
  </g>
</svg>
